<svg width="1082" height="256" viewBox="0 0 1082 256" fill="none" xmlns="http://www.w3.org/2000/svg">
<path d="M0.456 51.32V50.324H2.712V59H1.608V51.32H0.456ZM10.1198 51.272H5.90775V54.008C6.09175 53.752 6.36375 53.544 6.72375 53.384C7.08375 53.216 7.47175 53.132 7.88775 53.132C8.55175 53.132 9.09175 53.272 9.50775 53.552C9.92375 53.824 10.2198 54.18 10.3958 54.62C10.5798 55.052 10.6718 55.512 10.6718 56C10.6718 56.576 10.5638 57.092 10.3478 57.548C10.1318 58.004 9.79975 58.364 9.35175 58.628C8.91175 58.892 8.36375 59.024 7.70775 59.024C6.86775 59.024 6.18775 58.808 5.66775 58.376C5.14775 57.944 4.83175 57.368 4.71975 56.648H5.78775C5.89175 57.104 6.11175 57.46 6.44775 57.716C6.78375 57.972 7.20775 58.1 7.71975 58.1C8.35175 58.1 8.82775 57.912 9.14775 57.536C9.46775 57.152 9.62775 56.648 9.62775 56.024C9.62775 55.4 9.46775 54.92 9.14775 54.584C8.82775 54.24 8.35575 54.068 7.73175 54.068C7.30775 54.068 6.93575 54.172 6.61575 54.38C6.30375 54.58 6.07575 54.856 5.93175 55.208H4.89975V50.312H10.1198V51.272ZM12.1229 54.572C12.1229 53.196 12.3469 52.124 12.7949 51.356C13.2429 50.58 14.0269 50.192 15.1469 50.192C16.2589 50.192 17.0389 50.58 17.4869 51.356C17.9349 52.124 18.1589 53.196 18.1589 54.572C18.1589 55.972 17.9349 57.06 17.4869 57.836C17.0389 58.612 16.2589 59 15.1469 59C14.0269 59 13.2429 58.612 12.7949 57.836C12.3469 57.06 12.1229 55.972 12.1229 54.572ZM17.0789 54.572C17.0789 53.876 17.0309 53.288 16.9349 52.808C16.8469 52.32 16.6589 51.928 16.3709 51.632C16.0909 51.336 15.6829 51.188 15.1469 51.188C14.6029 51.188 14.1869 51.336 13.8989 51.632C13.6189 51.928 13.4309 52.32 13.3349 52.808C13.2469 53.288 13.2029 53.876 13.2029 54.572C13.2029 55.292 13.2469 55.896 13.3349 56.384C13.4309 56.872 13.6189 57.264 13.8989 57.56C14.1869 57.856 14.6029 58.004 15.1469 58.004C15.6829 58.004 16.0909 57.856 16.3709 57.56C16.6589 57.264 16.8469 56.872 16.9349 56.384C17.0309 55.896 17.0789 55.292 17.0789 54.572ZM23.5101 59L20.9301 56.096V59H19.8381V50.12H20.9301V55.34L23.4621 52.424H24.9861L21.8901 55.7L24.9981 59H23.5101Z" fill="#0E0E2C"/>
<path d="M0.612 8.124C1.628 7.308 2.424 6.64 3 6.12C3.576 5.592 4.06 5.044 4.452 4.476C4.852 3.9 5.052 3.336 5.052 2.784C5.052 2.264 4.924 1.856 4.668 1.56C4.42 1.256 4.016 1.104 3.456 1.104C2.912 1.104 2.488 1.276 2.184 1.62C1.888 1.956 1.728 2.408 1.704 2.976H0.648C0.68 2.08 0.952 1.388 1.464 0.9C1.976 0.411999 2.636 0.167999 3.444 0.167999C4.268 0.167999 4.92 0.395999 5.4 0.852C5.888 1.308 6.132 1.936 6.132 2.736C6.132 3.4 5.932 4.048 5.532 4.68C5.14 5.304 4.692 5.856 4.188 6.336C3.684 6.808 3.04 7.36 2.256 7.992H6.384V8.904H0.612V8.124ZM7.64634 4.572C7.64634 3.196 7.87034 2.124 8.31834 1.356C8.76634 0.58 9.55034 0.192 10.6703 0.192C11.7823 0.192 12.5623 0.58 13.0103 1.356C13.4583 2.124 13.6823 3.196 13.6823 4.572C13.6823 5.972 13.4583 7.06 13.0103 7.836C12.5623 8.612 11.7823 9 10.6703 9C9.55034 9 8.76634 8.612 8.31834 7.836C7.87034 7.06 7.64634 5.972 7.64634 4.572ZM12.6023 4.572C12.6023 3.876 12.5543 3.288 12.4583 2.808C12.3703 2.32 12.1823 1.928 11.8943 1.632C11.6143 1.336 11.2063 1.188 10.6703 1.188C10.1263 1.188 9.71034 1.336 9.42234 1.632C9.14234 1.928 8.95434 2.32 8.85834 2.808C8.77034 3.288 8.72634 3.876 8.72634 4.572C8.72634 5.292 8.77034 5.896 8.85834 6.384C8.95434 6.872 9.14234 7.264 9.42234 7.56C9.71034 7.856 10.1263 8.004 10.6703 8.004C11.2063 8.004 11.6143 7.856 11.8943 7.56C12.1823 7.264 12.3703 6.872 12.4583 6.384C12.5543 5.896 12.6023 5.292 12.6023 4.572ZM15.1815 4.572C15.1815 3.196 15.4055 2.124 15.8535 1.356C16.3015 0.58 17.0855 0.192 18.2055 0.192C19.3175 0.192 20.0975 0.58 20.5455 1.356C20.9935 2.124 21.2175 3.196 21.2175 4.572C21.2175 5.972 20.9935 7.06 20.5455 7.836C20.0975 8.612 19.3175 9 18.2055 9C17.0855 9 16.3015 8.612 15.8535 7.836C15.4055 7.06 15.1815 5.972 15.1815 4.572ZM20.1375 4.572C20.1375 3.876 20.0895 3.288 19.9935 2.808C19.9055 2.32 19.7175 1.928 19.4295 1.632C19.1495 1.336 18.7415 1.188 18.2055 1.188C17.6615 1.188 17.2455 1.336 16.9575 1.632C16.6775 1.928 16.4895 2.32 16.3935 2.808C16.3055 3.288 16.2615 3.876 16.2615 4.572C16.2615 5.292 16.3055 5.896 16.3935 6.384C16.4895 6.872 16.6775 7.264 16.9575 7.56C17.2455 7.856 17.6615 8.004 18.2055 8.004C18.7415 8.004 19.1495 7.856 19.4295 7.56C19.7175 7.264 19.9055 6.872 19.9935 6.384C20.0895 5.896 20.1375 5.292 20.1375 4.572ZM26.5687 9L23.9887 6.096V9H22.8967V0.12H23.9887V5.34L26.5207 2.424H28.0447L24.9487 5.7L28.0567 9H26.5687Z" fill="#0E0E2C"/>
<path d="M0.456 101.32V100.324H2.712V109H1.608V101.32H0.456ZM4.58775 104.572C4.58775 103.196 4.81175 102.124 5.25975 101.356C5.70775 100.58 6.49175 100.192 7.61175 100.192C8.72375 100.192 9.50375 100.58 9.95175 101.356C10.3997 102.124 10.6237 103.196 10.6237 104.572C10.6237 105.972 10.3997 107.06 9.95175 107.836C9.50375 108.612 8.72375 109 7.61175 109C6.49175 109 5.70775 108.612 5.25975 107.836C4.81175 107.06 4.58775 105.972 4.58775 104.572ZM9.54375 104.572C9.54375 103.876 9.49575 103.288 9.39975 102.808C9.31175 102.32 9.12375 101.928 8.83575 101.632C8.55575 101.336 8.14775 101.188 7.61175 101.188C7.06775 101.188 6.65175 101.336 6.36375 101.632C6.08375 101.928 5.89575 102.32 5.79975 102.808C5.71175 103.288 5.66775 103.876 5.66775 104.572C5.66775 105.292 5.71175 105.896 5.79975 106.384C5.89575 106.872 6.08375 107.264 6.36375 107.56C6.65175 107.856 7.06775 108.004 7.61175 108.004C8.14775 108.004 8.55575 107.856 8.83575 107.56C9.12375 107.264 9.31175 106.872 9.39975 106.384C9.49575 105.896 9.54375 105.292 9.54375 104.572ZM12.1229 104.572C12.1229 103.196 12.3469 102.124 12.7949 101.356C13.2429 100.58 14.0269 100.192 15.1469 100.192C16.2589 100.192 17.0389 100.58 17.4869 101.356C17.9349 102.124 18.1589 103.196 18.1589 104.572C18.1589 105.972 17.9349 107.06 17.4869 107.836C17.0389 108.612 16.2589 109 15.1469 109C14.0269 109 13.2429 108.612 12.7949 107.836C12.3469 107.06 12.1229 105.972 12.1229 104.572ZM17.0789 104.572C17.0789 103.876 17.0309 103.288 16.9349 102.808C16.8469 102.32 16.6589 101.928 16.3709 101.632C16.0909 101.336 15.6829 101.188 15.1469 101.188C14.6029 101.188 14.1869 101.336 13.8989 101.632C13.6189 101.928 13.4309 102.32 13.3349 102.808C13.2469 103.288 13.2029 103.876 13.2029 104.572C13.2029 105.292 13.2469 105.896 13.3349 106.384C13.4309 106.872 13.6189 107.264 13.8989 107.56C14.1869 107.856 14.6029 108.004 15.1469 108.004C15.6829 108.004 16.0909 107.856 16.3709 107.56C16.6589 107.264 16.8469 106.872 16.9349 106.384C17.0309 105.896 17.0789 105.292 17.0789 104.572ZM23.5101 109L20.9301 106.096V109H19.8381V100.12H20.9301V105.34L23.4621 102.424H24.9861L21.8901 105.7L24.9981 109H23.5101Z" fill="#0E0E2C"/>
<path d="M6.276 151.272H2.064V154.008C2.248 153.752 2.52 153.544 2.88 153.384C3.24 153.216 3.628 153.132 4.044 153.132C4.708 153.132 5.248 153.272 5.664 153.552C6.08 153.824 6.376 154.18 6.552 154.62C6.736 155.052 6.828 155.512 6.828 156C6.828 156.576 6.72 157.092 6.504 157.548C6.288 158.004 5.956 158.364 5.508 158.628C5.068 158.892 4.52 159.024 3.864 159.024C3.024 159.024 2.344 158.808 1.824 158.376C1.304 157.944 0.988 157.368 0.876 156.648H1.944C2.048 157.104 2.268 157.46 2.604 157.716C2.94 157.972 3.364 158.1 3.876 158.1C4.508 158.1 4.984 157.912 5.304 157.536C5.624 157.152 5.784 156.648 5.784 156.024C5.784 155.4 5.624 154.92 5.304 154.584C4.984 154.24 4.512 154.068 3.888 154.068C3.464 154.068 3.092 154.172 2.772 154.38C2.46 154.58 2.232 154.856 2.088 155.208H1.056V150.312H6.276V151.272ZM8.27916 154.572C8.27916 153.196 8.50316 152.124 8.95116 151.356C9.39916 150.58 10.1832 150.192 11.3032 150.192C12.4152 150.192 13.1952 150.58 13.6432 151.356C14.0912 152.124 14.3152 153.196 14.3152 154.572C14.3152 155.972 14.0912 157.06 13.6432 157.836C13.1952 158.612 12.4152 159 11.3032 159C10.1832 159 9.39916 158.612 8.95116 157.836C8.50316 157.06 8.27916 155.972 8.27916 154.572ZM13.2352 154.572C13.2352 153.876 13.1872 153.288 13.0912 152.808C13.0032 152.32 12.8152 151.928 12.5272 151.632C12.2472 151.336 11.8392 151.188 11.3032 151.188C10.7592 151.188 10.3432 151.336 10.0552 151.632C9.77516 151.928 9.58716 152.32 9.49116 152.808C9.40316 153.288 9.35916 153.876 9.35916 154.572C9.35916 155.292 9.40316 155.896 9.49116 156.384C9.58716 156.872 9.77516 157.264 10.0552 157.56C10.3432 157.856 10.7592 158.004 11.3032 158.004C11.8392 158.004 12.2472 157.856 12.5272 157.56C12.8152 157.264 13.0032 156.872 13.0912 156.384C13.1872 155.896 13.2352 155.292 13.2352 154.572ZM19.6663 159L17.0863 156.096V159H15.9943V150.12H17.0863V155.34L19.6183 152.424H21.1423L18.0463 155.7L21.1543 159H19.6663Z" fill="#0E0E2C"/>
<path d="M0.744 204.572C0.744 203.196 0.968 202.124 1.416 201.356C1.864 200.58 2.648 200.192 3.768 200.192C4.88 200.192 5.66 200.58 6.108 201.356C6.556 202.124 6.78 203.196 6.78 204.572C6.78 205.972 6.556 207.06 6.108 207.836C5.66 208.612 4.88 209 3.768 209C2.648 209 1.864 208.612 1.416 207.836C0.968 207.06 0.744 205.972 0.744 204.572ZM5.7 204.572C5.7 203.876 5.652 203.288 5.556 202.808C5.468 202.32 5.28 201.928 4.992 201.632C4.712 201.336 4.304 201.188 3.768 201.188C3.224 201.188 2.808 201.336 2.52 201.632C2.24 201.928 2.052 202.32 1.956 202.808C1.868 203.288 1.824 203.876 1.824 204.572C1.824 205.292 1.868 205.896 1.956 206.384C2.052 206.872 2.24 207.264 2.52 207.56C2.808 207.856 3.224 208.004 3.768 208.004C4.304 208.004 4.712 207.856 4.992 207.56C5.28 207.264 5.468 206.872 5.556 206.384C5.652 205.896 5.7 205.292 5.7 204.572Z" fill="#0E0E2C"/>
<path d="M43.456 243.82V242.824H45.712V251.5H44.608V243.82H43.456ZM52.9278 243.676L49.5918 251.5H48.4878L51.8718 243.784H47.2397V242.848H52.9278V243.676ZM61.7298 243.136V249.316C61.7298 250.004 61.5178 250.556 61.0938 250.972C60.6698 251.38 60.1098 251.584 59.4138 251.584C58.7098 251.584 58.1458 251.376 57.7218 250.96C57.2978 250.536 57.0858 249.96 57.0858 249.232H58.1777C58.1858 249.64 58.2898 249.972 58.4898 250.228C58.6978 250.484 59.0058 250.612 59.4138 250.612C59.8218 250.612 60.1258 250.492 60.3258 250.252C60.5258 250.004 60.6258 249.692 60.6258 249.316V243.136H61.7298ZM69.713 244.924V251.5H68.621V250.528C68.413 250.864 68.121 251.128 67.745 251.32C67.377 251.504 66.969 251.596 66.521 251.596C66.009 251.596 65.549 251.492 65.141 251.284C64.733 251.068 64.409 250.748 64.169 250.324C63.937 249.9 63.821 249.384 63.821 248.776V244.924H64.901V248.632C64.901 249.28 65.065 249.78 65.393 250.132C65.721 250.476 66.169 250.648 66.737 250.648C67.321 250.648 67.781 250.468 68.117 250.108C68.453 249.748 68.621 249.224 68.621 248.536V244.924H69.713ZM72.6488 242.62V251.5H71.5568V242.62H72.6488ZM80.1739 244.924L76.2139 254.596H75.0859L76.3819 251.428L73.7299 244.924H74.9419L77.0059 250.252L79.0459 244.924H80.1739Z" fill="#0E0E2C"/>
<path d="M165.456 243.82V242.824H167.712V251.5H166.608V243.82H165.456ZM171.172 246.988C170.724 246.812 170.38 246.556 170.14 246.22C169.9 245.884 169.78 245.476 169.78 244.996C169.78 244.564 169.888 244.176 170.104 243.832C170.32 243.48 170.64 243.204 171.064 243.004C171.496 242.796 172.016 242.692 172.624 242.692C173.232 242.692 173.748 242.796 174.172 243.004C174.604 243.204 174.928 243.48 175.144 243.832C175.368 244.176 175.48 244.564 175.48 244.996C175.48 245.46 175.356 245.868 175.108 246.22C174.86 246.564 174.52 246.82 174.088 246.988C174.584 247.14 174.976 247.408 175.264 247.792C175.56 248.168 175.708 248.624 175.708 249.16C175.708 249.68 175.58 250.136 175.324 250.528C175.068 250.912 174.704 251.212 174.232 251.428C173.768 251.636 173.232 251.74 172.624 251.74C172.016 251.74 171.48 251.636 171.016 251.428C170.56 251.212 170.204 250.912 169.948 250.528C169.692 250.136 169.564 249.68 169.564 249.16C169.564 248.624 169.708 248.164 169.996 247.78C170.284 247.396 170.676 247.132 171.172 246.988ZM174.424 245.128C174.424 244.64 174.264 244.264 173.944 244C173.624 243.736 173.184 243.604 172.624 243.604C172.072 243.604 171.636 243.736 171.316 244C170.996 244.264 170.836 244.644 170.836 245.14C170.836 245.588 171 245.948 171.328 246.22C171.664 246.492 172.096 246.628 172.624 246.628C173.16 246.628 173.592 246.492 173.92 246.22C174.256 245.94 174.424 245.576 174.424 245.128ZM172.624 247.468C172.032 247.468 171.548 247.608 171.172 247.888C170.796 248.16 170.608 248.572 170.608 249.124C170.608 249.636 170.788 250.048 171.148 250.36C171.516 250.672 172.008 250.828 172.624 250.828C173.24 250.828 173.728 250.672 174.088 250.36C174.448 250.048 174.628 249.636 174.628 249.124C174.628 248.588 174.444 248.18 174.076 247.9C173.708 247.612 173.224 247.468 172.624 247.468ZM184.749 243.136V249.316C184.749 250.004 184.537 250.556 184.113 250.972C183.689 251.38 183.129 251.584 182.433 251.584C181.729 251.584 181.165 251.376 180.741 250.96C180.317 250.536 180.105 249.96 180.105 249.232H181.197C181.205 249.64 181.309 249.972 181.509 250.228C181.717 250.484 182.025 250.612 182.433 250.612C182.841 250.612 183.145 250.492 183.345 250.252C183.545 250.004 183.645 249.692 183.645 249.316V243.136H184.749ZM192.733 244.924V251.5H191.641V250.528C191.433 250.864 191.141 251.128 190.765 251.32C190.397 251.504 189.989 251.596 189.541 251.596C189.029 251.596 188.569 251.492 188.161 251.284C187.753 251.068 187.429 250.748 187.189 250.324C186.957 249.9 186.841 249.384 186.841 248.776V244.924H187.921V248.632C187.921 249.28 188.085 249.78 188.413 250.132C188.741 250.476 189.189 250.648 189.757 250.648C190.341 250.648 190.801 250.468 191.137 250.108C191.473 249.748 191.641 249.224 191.641 248.536V244.924H192.733ZM195.668 242.62V251.5H194.576V242.62H195.668ZM203.193 244.924L199.233 254.596H198.105L199.401 251.428L196.749 244.924H197.961L200.025 250.252L202.065 244.924H203.193Z" fill="#0E0E2C"/>
<path d="M288.456 243.82V242.824H290.712V251.5H289.608V243.82H288.456ZM293.992 249.172C294.072 249.628 294.256 249.98 294.544 250.228C294.84 250.476 295.236 250.6 295.732 250.6C296.396 250.6 296.884 250.34 297.196 249.82C297.516 249.3 297.668 248.424 297.652 247.192C297.484 247.552 297.204 247.836 296.812 248.044C296.42 248.244 295.984 248.344 295.504 248.344C294.968 248.344 294.488 248.236 294.064 248.02C293.648 247.796 293.32 247.472 293.08 247.048C292.84 246.624 292.72 246.112 292.72 245.512C292.72 244.656 292.968 243.968 293.464 243.448C293.96 242.92 294.664 242.656 295.576 242.656C296.696 242.656 297.48 243.02 297.928 243.748C298.384 244.476 298.612 245.56 298.612 247C298.612 248.008 298.52 248.84 298.336 249.496C298.16 250.152 297.856 250.652 297.424 250.996C297 251.34 296.416 251.512 295.672 251.512C294.856 251.512 294.22 251.292 293.764 250.852C293.308 250.412 293.048 249.852 292.984 249.172H293.992ZM295.684 247.42C296.22 247.42 296.66 247.256 297.004 246.928C297.348 246.592 297.52 246.14 297.52 245.572C297.52 244.972 297.352 244.488 297.016 244.12C296.68 243.752 296.208 243.568 295.6 243.568C295.04 243.568 294.592 243.744 294.256 244.096C293.928 244.448 293.764 244.912 293.764 245.488C293.764 246.072 293.928 246.54 294.256 246.892C294.584 247.244 295.06 247.42 295.684 247.42ZM307.738 243.136V249.316C307.738 250.004 307.526 250.556 307.102 250.972C306.678 251.38 306.118 251.584 305.422 251.584C304.718 251.584 304.154 251.376 303.73 250.96C303.306 250.536 303.094 249.96 303.094 249.232H304.186C304.194 249.64 304.298 249.972 304.498 250.228C304.706 250.484 305.014 250.612 305.422 250.612C305.83 250.612 306.134 250.492 306.334 250.252C306.534 250.004 306.634 249.692 306.634 249.316V243.136H307.738ZM315.721 244.924V251.5H314.629V250.528C314.421 250.864 314.129 251.128 313.753 251.32C313.385 251.504 312.977 251.596 312.529 251.596C312.017 251.596 311.557 251.492 311.149 251.284C310.741 251.068 310.417 250.748 310.177 250.324C309.945 249.9 309.829 249.384 309.829 248.776V244.924H310.909V248.632C310.909 249.28 311.073 249.78 311.401 250.132C311.729 250.476 312.177 250.648 312.745 250.648C313.329 250.648 313.789 250.468 314.125 250.108C314.461 249.748 314.629 249.224 314.629 248.536V244.924H315.721ZM318.657 242.62V251.5H317.565V242.62H318.657ZM326.182 244.924L322.222 254.596H321.094L322.39 251.428L319.738 244.924H320.95L323.014 250.252L325.054 244.924H326.182Z" fill="#0E0E2C"/>
<path d="M411.612 250.624C412.628 249.808 413.424 249.14 414 248.62C414.576 248.092 415.06 247.544 415.452 246.976C415.852 246.4 416.052 245.836 416.052 245.284C416.052 244.764 415.924 244.356 415.668 244.06C415.42 243.756 415.016 243.604 414.456 243.604C413.912 243.604 413.488 243.776 413.184 244.12C412.888 244.456 412.728 244.908 412.704 245.476H411.648C411.68 244.58 411.952 243.888 412.464 243.4C412.976 242.912 413.636 242.668 414.444 242.668C415.268 242.668 415.92 242.896 416.4 243.352C416.888 243.808 417.132 244.436 417.132 245.236C417.132 245.9 416.932 246.548 416.532 247.18C416.14 247.804 415.692 248.356 415.188 248.836C414.684 249.308 414.04 249.86 413.256 250.492H417.384V251.404H411.612V250.624ZM418.646 247.072C418.646 245.696 418.87 244.624 419.318 243.856C419.766 243.08 420.55 242.692 421.67 242.692C422.782 242.692 423.562 243.08 424.01 243.856C424.458 244.624 424.682 245.696 424.682 247.072C424.682 248.472 424.458 249.56 424.01 250.336C423.562 251.112 422.782 251.5 421.67 251.5C420.55 251.5 419.766 251.112 419.318 250.336C418.87 249.56 418.646 248.472 418.646 247.072ZM423.602 247.072C423.602 246.376 423.554 245.788 423.458 245.308C423.37 244.82 423.182 244.428 422.894 244.132C422.614 243.836 422.206 243.688 421.67 243.688C421.126 243.688 420.71 243.836 420.422 244.132C420.142 244.428 419.954 244.82 419.858 245.308C419.77 245.788 419.726 246.376 419.726 247.072C419.726 247.792 419.77 248.396 419.858 248.884C419.954 249.372 420.142 249.764 420.422 250.06C420.71 250.356 421.126 250.504 421.67 250.504C422.206 250.504 422.614 250.356 422.894 250.06C423.182 249.764 423.37 249.372 423.458 248.884C423.554 248.396 423.602 247.792 423.602 247.072ZM433.773 243.136V249.316C433.773 250.004 433.561 250.556 433.137 250.972C432.713 251.38 432.153 251.584 431.457 251.584C430.753 251.584 430.189 251.376 429.765 250.96C429.341 250.536 429.129 249.96 429.129 249.232H430.221C430.229 249.64 430.333 249.972 430.533 250.228C430.741 250.484 431.049 250.612 431.457 250.612C431.865 250.612 432.169 250.492 432.369 250.252C432.569 250.004 432.669 249.692 432.669 249.316V243.136H433.773ZM441.756 244.924V251.5H440.664V250.528C440.456 250.864 440.164 251.128 439.788 251.32C439.42 251.504 439.012 251.596 438.564 251.596C438.052 251.596 437.592 251.492 437.184 251.284C436.776 251.068 436.452 250.748 436.212 250.324C435.98 249.9 435.864 249.384 435.864 248.776V244.924H436.944V248.632C436.944 249.28 437.108 249.78 437.436 250.132C437.764 250.476 438.212 250.648 438.78 250.648C439.364 250.648 439.824 250.468 440.16 250.108C440.496 249.748 440.664 249.224 440.664 248.536V244.924H441.756ZM444.692 242.62V251.5H443.6V242.62H444.692ZM452.217 244.924L448.257 254.596H447.129L448.425 251.428L445.773 244.924H446.985L449.049 250.252L451.089 244.924H452.217Z" fill="#0E0E2C"/>
<path d="M537.612 250.624C538.628 249.808 539.424 249.14 540 248.62C540.576 248.092 541.06 247.544 541.452 246.976C541.852 246.4 542.052 245.836 542.052 245.284C542.052 244.764 541.924 244.356 541.668 244.06C541.42 243.756 541.016 243.604 540.456 243.604C539.912 243.604 539.488 243.776 539.184 244.12C538.888 244.456 538.728 244.908 538.704 245.476H537.648C537.68 244.58 537.952 243.888 538.464 243.4C538.976 242.912 539.636 242.668 540.444 242.668C541.268 242.668 541.92 242.896 542.4 243.352C542.888 243.808 543.132 244.436 543.132 245.236C543.132 245.9 542.932 246.548 542.532 247.18C542.14 247.804 541.692 248.356 541.188 248.836C540.684 249.308 540.04 249.86 539.256 250.492H543.384V251.404H537.612V250.624ZM544.358 243.82V242.824H546.614V251.5H545.51V243.82H544.358ZM556.081 243.136V249.316C556.081 250.004 555.869 250.556 555.445 250.972C555.021 251.38 554.461 251.584 553.765 251.584C553.061 251.584 552.497 251.376 552.073 250.96C551.649 250.536 551.437 249.96 551.437 249.232H552.529C552.537 249.64 552.641 249.972 552.841 250.228C553.049 250.484 553.357 250.612 553.765 250.612C554.173 250.612 554.477 250.492 554.677 250.252C554.877 250.004 554.977 249.692 554.977 249.316V243.136H556.081ZM564.065 244.924V251.5H562.973V250.528C562.765 250.864 562.473 251.128 562.097 251.32C561.729 251.504 561.321 251.596 560.873 251.596C560.361 251.596 559.901 251.492 559.493 251.284C559.085 251.068 558.761 250.748 558.521 250.324C558.289 249.9 558.173 249.384 558.173 248.776V244.924H559.253V248.632C559.253 249.28 559.417 249.78 559.745 250.132C560.073 250.476 560.521 250.648 561.089 250.648C561.673 250.648 562.133 250.468 562.469 250.108C562.805 249.748 562.973 249.224 562.973 248.536V244.924H564.065ZM567 242.62V251.5H565.908V242.62H567ZM574.526 244.924L570.566 254.596H569.438L570.734 251.428L568.082 244.924H569.294L571.358 250.252L573.398 244.924H574.526Z" fill="#0E0E2C"/>
<path d="M659.612 250.624C660.628 249.808 661.424 249.14 662 248.62C662.576 248.092 663.06 247.544 663.452 246.976C663.852 246.4 664.052 245.836 664.052 245.284C664.052 244.764 663.924 244.356 663.668 244.06C663.42 243.756 663.016 243.604 662.456 243.604C661.912 243.604 661.488 243.776 661.184 244.12C660.888 244.456 660.728 244.908 660.704 245.476H659.648C659.68 244.58 659.952 243.888 660.464 243.4C660.976 242.912 661.636 242.668 662.444 242.668C663.268 242.668 663.92 242.896 664.4 243.352C664.888 243.808 665.132 244.436 665.132 245.236C665.132 245.9 664.932 246.548 664.532 247.18C664.14 247.804 663.692 248.356 663.188 248.836C662.684 249.308 662.04 249.86 661.256 250.492H665.384V251.404H659.612V250.624ZM666.514 250.624C667.53 249.808 668.326 249.14 668.902 248.62C669.478 248.092 669.962 247.544 670.354 246.976C670.754 246.4 670.954 245.836 670.954 245.284C670.954 244.764 670.826 244.356 670.57 244.06C670.322 243.756 669.918 243.604 669.358 243.604C668.814 243.604 668.39 243.776 668.086 244.12C667.79 244.456 667.63 244.908 667.606 245.476H666.55C666.582 244.58 666.854 243.888 667.366 243.4C667.878 242.912 668.538 242.668 669.346 242.668C670.17 242.668 670.822 242.896 671.302 243.352C671.79 243.808 672.034 244.436 672.034 245.236C672.034 245.9 671.834 246.548 671.434 247.18C671.042 247.804 670.594 248.356 670.09 248.836C669.586 249.308 668.942 249.86 668.158 250.492H672.286V251.404H666.514V250.624ZM681.14 243.136V249.316C681.14 250.004 680.928 250.556 680.504 250.972C680.08 251.38 679.52 251.584 678.824 251.584C678.12 251.584 677.556 251.376 677.132 250.96C676.708 250.536 676.496 249.96 676.496 249.232H677.588C677.596 249.64 677.7 249.972 677.9 250.228C678.108 250.484 678.416 250.612 678.824 250.612C679.232 250.612 679.536 250.492 679.736 250.252C679.936 250.004 680.036 249.692 680.036 249.316V243.136H681.14ZM689.123 244.924V251.5H688.031V250.528C687.823 250.864 687.531 251.128 687.155 251.32C686.787 251.504 686.379 251.596 685.931 251.596C685.419 251.596 684.959 251.492 684.551 251.284C684.143 251.068 683.819 250.748 683.579 250.324C683.347 249.9 683.231 249.384 683.231 248.776V244.924H684.311V248.632C684.311 249.28 684.475 249.78 684.803 250.132C685.131 250.476 685.579 250.648 686.147 250.648C686.731 250.648 687.191 250.468 687.527 250.108C687.863 249.748 688.031 249.224 688.031 248.536V244.924H689.123ZM692.059 242.62V251.5H690.967V242.62H692.059ZM699.584 244.924L695.624 254.596H694.496L695.792 251.428L693.14 244.924H694.352L696.416 250.252L698.456 244.924H699.584Z" fill="#0E0E2C"/>
<path d="M784.612 250.624C785.628 249.808 786.424 249.14 787 248.62C787.576 248.092 788.06 247.544 788.452 246.976C788.852 246.4 789.052 245.836 789.052 245.284C789.052 244.764 788.924 244.356 788.668 244.06C788.42 243.756 788.016 243.604 787.456 243.604C786.912 243.604 786.488 243.776 786.184 244.12C785.888 244.456 785.728 244.908 785.704 245.476H784.648C784.68 244.58 784.952 243.888 785.464 243.4C785.976 242.912 786.636 242.668 787.444 242.668C788.268 242.668 788.92 242.896 789.4 243.352C789.888 243.808 790.132 244.436 790.132 245.236C790.132 245.9 789.932 246.548 789.532 247.18C789.14 247.804 788.692 248.356 788.188 248.836C787.684 249.308 787.04 249.86 786.256 250.492H790.384V251.404H784.612V250.624ZM791.622 245.008C791.678 244.272 791.962 243.696 792.474 243.28C792.986 242.864 793.65 242.656 794.466 242.656C795.01 242.656 795.478 242.756 795.87 242.956C796.27 243.148 796.57 243.412 796.77 243.748C796.978 244.084 797.082 244.464 797.082 244.888C797.082 245.384 796.938 245.812 796.65 246.172C796.37 246.532 796.002 246.764 795.546 246.868V246.928C796.066 247.056 796.478 247.308 796.782 247.684C797.086 248.06 797.238 248.552 797.238 249.16C797.238 249.616 797.134 250.028 796.926 250.396C796.718 250.756 796.406 251.04 795.99 251.248C795.574 251.456 795.074 251.56 794.49 251.56C793.642 251.56 792.946 251.34 792.402 250.9C791.858 250.452 791.554 249.82 791.49 249.004H792.546C792.602 249.484 792.798 249.876 793.134 250.18C793.47 250.484 793.918 250.636 794.478 250.636C795.038 250.636 795.462 250.492 795.75 250.204C796.046 249.908 796.194 249.528 796.194 249.064C796.194 248.464 795.994 248.032 795.594 247.768C795.194 247.504 794.59 247.372 793.782 247.372H793.506V246.46H793.794C794.53 246.452 795.086 246.332 795.462 246.1C795.838 245.86 796.026 245.492 796.026 244.996C796.026 244.572 795.886 244.232 795.606 243.976C795.334 243.72 794.942 243.592 794.43 243.592C793.934 243.592 793.534 243.72 793.23 243.976C792.926 244.232 792.746 244.576 792.69 245.008H791.622ZM806.304 243.136V249.316C806.304 250.004 806.092 250.556 805.668 250.972C805.244 251.38 804.684 251.584 803.988 251.584C803.284 251.584 802.72 251.376 802.296 250.96C801.872 250.536 801.66 249.96 801.66 249.232H802.752C802.76 249.64 802.864 249.972 803.064 250.228C803.272 250.484 803.58 250.612 803.988 250.612C804.396 250.612 804.7 250.492 804.9 250.252C805.1 250.004 805.2 249.692 805.2 249.316V243.136H806.304ZM814.287 244.924V251.5H813.195V250.528C812.987 250.864 812.695 251.128 812.319 251.32C811.951 251.504 811.543 251.596 811.095 251.596C810.583 251.596 810.123 251.492 809.715 251.284C809.307 251.068 808.983 250.748 808.743 250.324C808.511 249.9 808.395 249.384 808.395 248.776V244.924H809.475V248.632C809.475 249.28 809.639 249.78 809.967 250.132C810.295 250.476 810.743 250.648 811.311 250.648C811.895 250.648 812.355 250.468 812.691 250.108C813.027 249.748 813.195 249.224 813.195 248.536V244.924H814.287ZM817.223 242.62V251.5H816.131V242.62H817.223ZM824.748 244.924L820.788 254.596H819.66L820.956 251.428L818.304 244.924H819.516L821.58 250.252L823.62 244.924H824.748Z" fill="#0E0E2C"/>
<path d="M909.612 250.624C910.628 249.808 911.424 249.14 912 248.62C912.576 248.092 913.06 247.544 913.452 246.976C913.852 246.4 914.052 245.836 914.052 245.284C914.052 244.764 913.924 244.356 913.668 244.06C913.42 243.756 913.016 243.604 912.456 243.604C911.912 243.604 911.488 243.776 911.184 244.12C910.888 244.456 910.728 244.908 910.704 245.476H909.648C909.68 244.58 909.952 243.888 910.464 243.4C910.976 242.912 911.636 242.668 912.444 242.668C913.268 242.668 913.92 242.896 914.4 243.352C914.888 243.808 915.132 244.436 915.132 245.236C915.132 245.9 914.932 246.548 914.532 247.18C914.14 247.804 913.692 248.356 913.188 248.836C912.684 249.308 912.04 249.86 911.256 250.492H915.384V251.404H909.612V250.624ZM916.382 249.568V248.74L920.594 242.908H921.902V248.62H923.102V249.568H921.902V251.5H920.822V249.568H916.382ZM920.87 244.048L917.642 248.62H920.87V244.048ZM931.784 243.136V249.316C931.784 250.004 931.572 250.556 931.148 250.972C930.724 251.38 930.164 251.584 929.468 251.584C928.764 251.584 928.2 251.376 927.776 250.96C927.352 250.536 927.14 249.96 927.14 249.232H928.232C928.24 249.64 928.344 249.972 928.544 250.228C928.752 250.484 929.06 250.612 929.468 250.612C929.876 250.612 930.18 250.492 930.38 250.252C930.58 250.004 930.68 249.692 930.68 249.316V243.136H931.784ZM939.768 244.924V251.5H938.676V250.528C938.468 250.864 938.176 251.128 937.8 251.32C937.432 251.504 937.024 251.596 936.576 251.596C936.064 251.596 935.604 251.492 935.196 251.284C934.788 251.068 934.464 250.748 934.224 250.324C933.992 249.9 933.876 249.384 933.876 248.776V244.924H934.956V248.632C934.956 249.28 935.12 249.78 935.448 250.132C935.776 250.476 936.224 250.648 936.792 250.648C937.376 250.648 937.836 250.468 938.172 250.108C938.508 249.748 938.676 249.224 938.676 248.536V244.924H939.768ZM942.704 242.62V251.5H941.612V242.62H942.704ZM950.229 244.924L946.269 254.596H945.141L946.437 251.428L943.785 244.924H944.997L947.061 250.252L949.101 244.924H950.229Z" fill="#0E0E2C"/>
<path d="M1035.61 250.624C1036.63 249.808 1037.42 249.14 1038 248.62C1038.58 248.092 1039.06 247.544 1039.45 246.976C1039.85 246.4 1040.05 245.836 1040.05 245.284C1040.05 244.764 1039.92 244.356 1039.67 244.06C1039.42 243.756 1039.02 243.604 1038.46 243.604C1037.91 243.604 1037.49 243.776 1037.18 244.12C1036.89 244.456 1036.73 244.908 1036.7 245.476H1035.65C1035.68 244.58 1035.95 243.888 1036.46 243.4C1036.98 242.912 1037.64 242.668 1038.44 242.668C1039.27 242.668 1039.92 242.896 1040.4 243.352C1040.89 243.808 1041.13 244.436 1041.13 245.236C1041.13 245.9 1040.93 246.548 1040.53 247.18C1040.14 247.804 1039.69 248.356 1039.19 248.836C1038.68 249.308 1038.04 249.86 1037.26 250.492H1041.38V251.404H1035.61V250.624ZM1048.18 243.772H1043.97V246.508C1044.15 246.252 1044.42 246.044 1044.78 245.884C1045.14 245.716 1045.53 245.632 1045.95 245.632C1046.61 245.632 1047.15 245.772 1047.57 246.052C1047.98 246.324 1048.28 246.68 1048.45 247.12C1048.64 247.552 1048.73 248.012 1048.73 248.5C1048.73 249.076 1048.62 249.592 1048.41 250.048C1048.19 250.504 1047.86 250.864 1047.41 251.128C1046.97 251.392 1046.42 251.524 1045.77 251.524C1044.93 251.524 1044.25 251.308 1043.73 250.876C1043.21 250.444 1042.89 249.868 1042.78 249.148H1043.85C1043.95 249.604 1044.17 249.96 1044.51 250.216C1044.84 250.472 1045.27 250.6 1045.78 250.6C1046.41 250.6 1046.89 250.412 1047.21 250.036C1047.53 249.652 1047.69 249.148 1047.69 248.524C1047.69 247.9 1047.53 247.42 1047.21 247.084C1046.89 246.74 1046.41 246.568 1045.79 246.568C1045.37 246.568 1044.99 246.672 1044.67 246.88C1044.36 247.08 1044.13 247.356 1043.99 247.708H1042.96V242.812H1048.18V243.772ZM1057.77 243.136V249.316C1057.77 250.004 1057.56 250.556 1057.14 250.972C1056.71 251.38 1056.15 251.584 1055.46 251.584C1054.75 251.584 1054.19 251.376 1053.76 250.96C1053.34 250.536 1053.13 249.96 1053.13 249.232H1054.22C1054.23 249.64 1054.33 249.972 1054.53 250.228C1054.74 250.484 1055.05 250.612 1055.46 250.612C1055.86 250.612 1056.17 250.492 1056.37 250.252C1056.57 250.004 1056.67 249.692 1056.67 249.316V243.136H1057.77ZM1065.76 244.924V251.5H1064.66V250.528C1064.46 250.864 1064.16 251.128 1063.79 251.32C1063.42 251.504 1063.01 251.596 1062.56 251.596C1062.05 251.596 1061.59 251.492 1061.18 251.284C1060.78 251.068 1060.45 250.748 1060.21 250.324C1059.98 249.9 1059.86 249.384 1059.86 248.776V244.924H1060.94V248.632C1060.94 249.28 1061.11 249.78 1061.44 250.132C1061.76 250.476 1062.21 250.648 1062.78 250.648C1063.36 250.648 1063.82 250.468 1064.16 250.108C1064.5 249.748 1064.66 249.224 1064.66 248.536V244.924H1065.76ZM1068.69 242.62V251.5H1067.6V242.62H1068.69ZM1076.22 244.924L1072.26 254.596H1071.13L1072.42 251.428L1069.77 244.924H1070.98L1073.05 250.252L1075.09 244.924H1076.22Z" fill="#0E0E2C"/>
<line x1="43" y1="204.5" x2="1082" y2="204.5" stroke="#0E0E2C"/>
<line x1="60.5" y1="205" x2="60.5" y2="5" stroke="#0E0E2C" stroke-dasharray="5 5"/>
<line x1="181.5" y1="205" x2="181.5" y2="5" stroke="#0E0E2C" stroke-dasharray="5 5"/>
<line x1="302.5" y1="205" x2="302.5" y2="5" stroke="#0E0E2C" stroke-dasharray="5 5"/>
<line x1="425.5" y1="205" x2="425.5" y2="5" stroke="#0E0E2C" stroke-dasharray="5 5"/>
<line x1="548.5" y1="205" x2="548.5" y2="5" stroke="#0E0E2C" stroke-dasharray="5 5"/>
<line x1="670.5" y1="205" x2="670.5" y2="5" stroke="#0E0E2C" stroke-dasharray="5 5"/>
<line x1="794.5" y1="205" x2="794.5" y2="5" stroke="#0E0E2C" stroke-dasharray="5 5"/>
<line x1="919.5" y1="205" x2="919.5" y2="5" stroke="#0E0E2C" stroke-dasharray="5 5"/>
<line x1="1044.5" y1="205" x2="1044.5" y2="5" stroke="#0E0E2C" stroke-dasharray="5 5"/>
<line x1="43" y1="154.5" x2="1082" y2="154.5" stroke="#0E0E2C" stroke-dasharray="5 5"/>
<line x1="43" y1="103.5" x2="1082" y2="103.5" stroke="#0E0E2C" stroke-dasharray="5 5"/>
<line x1="43" y1="54.5" x2="1082" y2="54.5001" stroke="#0E0E2C" stroke-dasharray="5 5"/>
<line x1="43" y1="4.5" x2="1082" y2="4.50006" stroke="#0E0E2C" stroke-dasharray="5 5"/>
<path d="M60 184C123.5 184 114.4 83 182 83C239.5 83 246 155 304 155C362 155 349 129.5 428 129.5C507 129.5 467.5 55 551 55C634.5 55 583.5 103.5 671 103.5C758.5 103.5 728.5 155 794 155C859.5 155 847.5 55 919 55C990.5 55 982 104 1081 104" stroke="#5281F8" stroke-width="3"/>
<path d="M182 83C114.4 83 123.5 184 60 184V204.5H1081V104C982 104 990.5 55 919 55C847.5 55 859.5 155 794 155C728.5 155 758.5 103.5 671 103.5C583.5 103.5 634.5 55 551 55C467.5 55 507 129.5 428 129.5C349 129.5 362 155 304 155C246 155 239.5 83 182 83Z" fill="#0E0E2C" fill-opacity="0.25"/>
</svg>
