<svg width="15" height="17" viewBox="0 0 15 17" fill="none" xmlns="http://www.w3.org/2000/svg">
<path d="M14.1503 5.46797C13.3136 1.78641 10.1022 0.128906 7.28125 0.128906C7.28125 0.128906 7.28125 0.128906 7.27328 0.128906C4.46031 0.128906 1.24094 1.77844 0.404218 5.46C-0.528125 9.57187 1.99 13.0542 4.26906 15.2456C5.11375 16.0584 6.1975 16.4648 7.28125 16.4648C8.365 16.4648 9.44875 16.0584 10.2855 15.2456C12.5645 13.0542 15.0827 9.57984 14.1503 5.46797ZM7.28125 9.46031C5.89469 9.46031 4.77109 8.33672 4.77109 6.95016C4.77109 5.56359 5.89469 4.44 7.28125 4.44C8.66781 4.44 9.79141 5.56359 9.79141 6.95016C9.79141 8.33672 8.66781 9.46031 7.28125 9.46031Z" fill="#0E0E2C"/>
</svg>
