<svg width="13" height="13" viewBox="0 0 13 13" fill="none" xmlns="http://www.w3.org/2000/svg">
<path d="M5.34375 8.1L6.14734 9L8.15625 6.75" stroke="#16E32B" stroke-width="0.84375" stroke-linecap="round" stroke-linejoin="round"/>
<path d="M1.125 6.74983C1.125 4.09816 1.125 2.77234 1.94876 1.94857C2.64673 1.25061 3.70511 1.14403 5.625 1.12775M12.375 6.74983C12.375 4.09816 12.375 2.77234 11.5512 1.94857C10.8533 1.25061 9.79487 1.14403 7.875 1.12775" stroke="#16E32B" stroke-width="0.84375" stroke-linecap="round"/>
<path d="M5.625 12.375C4.04985 12.375 3.26228 12.375 2.66065 12.0684C2.13145 11.7988 1.70119 11.3686 1.43155 10.8394C1.125 10.2377 1.125 9.45017 1.125 7.875C1.125 6.29983 1.125 5.51228 1.43155 4.91065C1.70119 4.38145 2.13145 3.95119 2.66065 3.68155C3.26228 3.375 4.04985 3.375 5.625 3.375H7.875C9.45017 3.375 10.2377 3.375 10.8394 3.68155C11.3686 3.95119 11.7988 4.38145 12.0684 4.91065C12.375 5.51228 12.375 6.29983 12.375 7.875C12.375 9.45017 12.375 10.2377 12.0684 10.8394C11.7988 11.3686 11.3686 11.7988 10.8394 12.0684C10.2377 12.375 9.45017 12.375 7.875 12.375" stroke="#16E32B" stroke-width="0.84375" stroke-linecap="round"/>
</svg>
