<svg width="109" height="110" viewBox="0 0 109 110" fill="none" xmlns="http://www.w3.org/2000/svg">
<path d="M54.5005 54.9993V1C84.3235 1 108.5 25.1763 108.5 54.9993C108.5 70.6187 101.737 85.473 89.9557 95.7284L54.5005 54.9993Z" fill="#E9BA50" stroke="white"/>
<path d="M54.5006 54.9993L89.9557 95.7284C69.9214 113.169 40.1788 113.449 19.8193 96.3894L54.5006 54.9993Z" fill="#557546" stroke="white"/>
<path d="M54.5006 54.9993L19.8194 96.3894C-3.03973 77.2355 -6.04341 43.1772 13.1105 20.3181C17.3351 15.2762 22.4453 11.0487 28.1894 7.84369L54.5006 54.9993Z" fill="#795D8D" stroke="white"/>
<path d="M54.5006 54.9994L28.1895 7.84376C33.1378 5.08278 38.4898 3.11786 44.0491 2.02112L54.5006 54.9994Z" fill="#507E7C" stroke="white"/>
<path d="M54.5009 54.9993L44.0493 2.0211C47.4917 1.34198 50.9921 1 54.5009 1V54.9993Z" fill="#A3542E" stroke="white"/>
</svg>
